#!OML:ASF G:\ViconDB\ViconDB\414\test\team2\shane.ASF
:FULLY-SPECIFIED
:DEGREES
439
root 2.09919 17.0634 41.1898 -9.18791 9.52498 -2.5142
lowerback 9.828 0.764518 1.50935
upperback 5.30016 1.1648 0.36279
thorax 0.0148723 0.617204 -0.584646
lowerneck -15.33 6.36865 -0.052876
upperneck 23.5013 9.75369 -2.75579
head 10.1667 4.18366 0.334278
rclavicle 4.5969e-015 -1.23246e-014
rhumerus -31.873 -5.27834 -84.6011
rradius 22.4101
rwrist 414.062
rhand -24.0928 -11.5399
rfingers 7.12502
rthumb 2.38775 -41.5063
lclavicle 4.5969e-015 -1.23246e-014
lhumerus -44.6244 -16.5494 98.4537
lradius 33.5092
lwrist -17.5337
lhand -40.576 7.79873
lfingers 7.12502
lthumb -13.523 37.3396
rfemur 3.17567 -12.4684 10.4329
rtibia 67.2306
rfoot -1.95354 2.34806
rtoes -12.1243
lfemur -3.98156 12.6749 -15.5177
ltibia 27.4946
lfoot -18.1754 -15.9875
ltoes 0.0298238
440
root 2.20737 17.0347 41.4885 -10.6161 10.225 -3.61875
lowerback 10.6266 0.590685 3.01785
upperback 5.38563 1.09969 0.961525
thorax -0.311354 0.6046 -0.818083
lowerneck -15.33 6.36865 -0.052876
upperneck 23.5013 9.75369 -2.75579
head 10.1667 4.18366 0.334278
rclavicle 1.62134e-015 -8.64713e-015
rhumerus -33.6341 -4.16202 -84.1078
rradius 23.0869
rwrist 413.991
rhand -23.2163 -11.2111
rfingers 7.12502
rthumb 3.2342 -41.1663
lclavicle 1.62134e-015 -8.64713e-015
lhumerus -44.6244 -16.5494 98.4537
lradius 33.5092
lwrist -17.5337
lhand -40.576 7.79873
lfingers 7.12502
lthumb -13.523 37.3396
rfemur 1.46511 -12.8657 11.7645
rtibia 68.4116
rfoot -4.55207 3.5472
rtoes -13.8395
lfemur -1.68134 11.9835 -14.2658
ltibia 28.0838
lfoot -19.7362 -16.0996
ltoes 0.0859433
441
root 2.2298 17.0404 41.6526 -9.98081 11.7291 -2.21598
lowerback 11.0252 0.608204 1.15579
upperback 5.28132 0.956532 0.670738
thorax -0.672581 0.500881 -0.064736
lowerneck -15.33 6.36865 -0.052876
upperneck 23.5013 9.75369 -2.75579
head 10.1667 4.18366 0.334278
rclavicle 1.62134e-015 -8.64713e-015
rhumerus -33.6341 -4.16202 -84.1078
rradius 23.0869
rwrist 413.991
rhand -23.2163 -11.2111
rfingers 7.12502
rthumb 3.2342 -41.1663
lclavicle -9.405e-015 3.97569e-015
lhumerus -44.6244 -16.5494 98.4537
lradius 33.5092
lwrist -17.5337
lhand -40.576 7.79873
lfingers 7.12502
lthumb -13.523 37.3396
rfemur -0.563528 -13.7353 10.6051
rtibia 69.2726
rfoot -6.43544 3.74215
rtoes -14.5399
lfemur -1.40565 11.2365 -15.9835
ltibia 27.4257
lfoot -19.8035 -16.4674
ltoes 0.0482754
442
root 2.2298 17.0404 41.6526 -9.98081 11.7291 -2.21598
lowerback 11.0252 0.608204 1.15579
upperback 5.28132 0.956532 0.670738
thorax -0.672581 0.500881 -0.064736
lowerneck -15.33 6.36865 -0.052876
upperneck 23.5013 9.75369 -2.75579
head 10.1667 4.18366 0.334278
rclavicle 1.62134e-015 -8.64713e-015
rhumerus -33.6341 -4.16202 -84.1078
rradius 23.0869
rwrist 413.991
rhand -23.2163 -11.2111
rfingers 7.12502
rthumb 3.2342 -41.1663
lclavicle -9.405e-015 3.97569e-015
lhumerus -44.6244 -16.5494 98.4537
lradius 33.5092
lwrist -17.5337
lhand -40.576 7.79873
lfingers 7.12502
lthumb -13.523 37.3396
rfemur -0.563528 -13.7353 10.6051
rtibia 69.2726
rfoot -6.43544 3.74215
rtoes -14.5399
lfemur -1.40565 11.2365 -15.9835
ltibia 27.4257
lfoot -19.8035 -16.4674
ltoes 0.0482754
443
root 2.2298 17.0404 41.6526 -9.98081 11.7291 -2.21598
lowerback 11.0252 0.608204 1.15579
upperback 5.28132 0.956532 0.670738
thorax -0.672581 0.500881 -0.064736
lowerneck -15.33 6.36865 -0.052876
upperneck 23.5013 9.75369 -2.75579
head 10.1667 4.18366 0.334278
rclavicle 1.62134e-015 -8.64713e-015
rhumerus -33.6341 -4.16202 -84.1078
rradius 23.0869
rwrist 413.991
rhand -23.2163 -11.2111
rfingers 7.12502
rthumb 3.2342 -41.1663
lclavicle -9.405e-015 3.97569e-015
lhumerus -44.6244 -16.5494 98.4537
lradius 33.5092
lwrist -17.5337
lhand -40.576 7.79873
lfingers 7.12502
lthumb -13.523 37.3396
rfemur -0.563528 -13.7353 10.6051
rtibia 69.2726
rfoot -6.43544 3.74215
rtoes -14.5399
lfemur -1.40565 11.2365 -15.9835
ltibia 27.4257
lfoot -19.8035 -16.4674
ltoes 0.0482754
444
root 2.2298 17.0404 41.6526 -9.98081 11.7291 -2.21598
lowerback 11.0252 0.608204 1.15579
upperback 5.28132 0.956532 0.670738
thorax -0.672581 0.500881 -0.064736
lowerneck -15.33 6.36865 -0.052876
upperneck 23.5013 9.75369 -2.75579
head 10.1667 4.18366 0.334278
rclavicle 1.62134e-015 -8.64713e-015
rhumerus -33.6341 -4.16202 -84.1078
rradius 23.0869
rwrist 413.991
rhand -23.2163 -11.2111
rfingers 7.12502
rthumb 3.2342 -41.1663
lclavicle -9.405e-015 3.97569e-015
lhumerus -44.6244 -16.5494 98.4537
lradius 33.5092
lwrist -17.5337
lhand -40.576 7.79873
lfingers 7.12502
lthumb -13.523 37.3396
rfemur -0.563528 -13.7353 10.6051
rtibia 69.2726
rfoot -6.43544 3.74215
rtoes -14.5399
lfemur -1.40565 11.2365 -15.9835
ltibia 27.4257
lfoot -19.8035 -16.4674
ltoes 0.0482754
445
root 2.2298 17.0404 41.6526 -9.98081 11.7291 -2.21598
lowerback 11.0252 0.608204 1.15579
upperback 5.28132 0.956532 0.670738
thorax -0.672581 0.500881 -0.064736
lowerneck -15.33 6.36865 -0.052876
upperneck 23.5013 9.75369 -2.75579
head 10.1667 4.18366 0.334278
rclavicle 1.62134e-015 -8.64713e-015
rhumerus -33.6341 -4.16202 -84.1078
rradius 23.0869
rwrist 413.991
rhand -23.2163 -11.2111
rfingers 7.12502
rthumb 3.2342 -41.1663
lclavicle -9.405e-015 3.97569e-015
lhumerus -44.6244 -16.5494 98.4537
lradius 33.5092
lwrist -17.5337
lhand -40.576 7.79873
lfingers 7.12502
lthumb -13.523 37.3396
rfemur -0.563528 -13.7353 10.6051
rtibia 69.2726
rfoot -6.43544 3.74215
rtoes -14.5399
lfemur -1.40565 11.2365 -15.9835
ltibia 27.4257
lfoot -19.8035 -16.4674
ltoes 0.0482754
